<svg width="1653" height="993" xmlns="http://www.w3.org/2000/svg" xmlns:xlink="http://www.w3.org/1999/xlink" overflow="hidden"><defs><clipPath id="clip0"><rect x="1289" y="200" width="1653" height="993"/></clipPath><clipPath id="clip1"><rect x="1290" y="200" width="1650" height="990"/></clipPath><clipPath id="clip2"><rect x="1290" y="200" width="1650" height="990"/></clipPath><clipPath id="clip3"><rect x="1400" y="399" width="1493" height="583"/></clipPath><clipPath id="clip4"><rect x="1400" y="399" width="1493" height="583"/></clipPath><clipPath id="clip5"><rect x="1290" y="200" width="1650" height="990"/></clipPath><clipPath id="clip6"><rect x="1290" y="200" width="1650" height="990"/></clipPath><clipPath id="clip7"><rect x="1290" y="200" width="1650" height="990"/></clipPath><clipPath id="clip8"><rect x="1290" y="200" width="1650" height="990"/></clipPath><clipPath id="clip9"><rect x="1290" y="200" width="1650" height="990"/></clipPath><clipPath id="clip10"><rect x="1290" y="200" width="1650" height="990"/></clipPath><clipPath id="clip11"><rect x="1290" y="200" width="1650" height="990"/></clipPath><clipPath id="clip12"><rect x="1290" y="200" width="1650" height="990"/></clipPath><clipPath id="clip13"><rect x="1290" y="200" width="1650" height="990"/></clipPath><clipPath id="clip14"><rect x="1290" y="200" width="1650" height="990"/></clipPath><clipPath id="clip15"><rect x="1290" y="200" width="1650" height="990"/></clipPath><clipPath id="clip16"><rect x="1290" y="200" width="1650" height="990"/></clipPath><clipPath id="clip17"><rect x="1290" y="200" width="1650" height="990"/></clipPath><clipPath id="clip18"><rect x="1290" y="200" width="1650" height="990"/></clipPath><clipPath id="clip19"><rect x="1290" y="200" width="1650" height="990"/></clipPath><clipPath id="clip20"><rect x="1290" y="200" width="1650" height="990"/></clipPath><clipPath id="clip21"><rect x="1290" y="200" width="1650" height="990"/></clipPath><clipPath id="clip22"><rect x="1290" y="200" width="1650" height="990"/></clipPath><clipPath id="clip23"><rect x="1290" y="200" width="1650" height="990"/></clipPath><clipPath id="clip24"><rect x="1290" y="200" width="1650" height="990"/></clipPath><clipPath id="clip25"><rect x="1290" y="200" width="1650" height="990"/></clipPath></defs><g clip-path="url(#clip0)" transform="translate(-1289 -200)"><rect x="1290" y="201" width="1650" height="990" fill="#FFFFFF"/><g clip-path="url(#clip1)"><path d="M1400.5 896.53 2889.5 896.53M1400.5 813.527 2889.5 813.527M1400.5 730.524 2889.5 730.524M1400.5 648.521 2889.5 648.521M1400.5 565.519 2889.5 565.519M1400.5 482.516 2889.5 482.516M1400.5 399.5 2889.5 399.5" stroke="#D9D9D9" stroke-width="3.4375" stroke-linejoin="round" stroke-miterlimit="10" fill="none"/></g><g clip-path="url(#clip2)"><path d="M1400.5 979.5 2889.5 979.5" stroke="#D9D9D9" stroke-width="3.4375" stroke-linejoin="round" stroke-miterlimit="10" fill="none" fill-rule="evenodd"/></g><g clip-path="url(#clip3)"><path d="M1506 565 1719.06 631.021 1932.06 582.019 2145.07 631.021 2358.08 648 2570.08 648 2783 631.021" stroke="#4472C4" stroke-width="10.3125" stroke-linecap="round" stroke-linejoin="round" stroke-miterlimit="10" fill="none"/></g><g clip-path="url(#clip4)"><path d="M1506 466 1719.06 499.016 1932.06 582.019 2145.07 532.017 2358.08 631 2570.08 549.018 2783 549.018" stroke="#ED7D31" stroke-width="10.3125" stroke-linecap="round" stroke-linejoin="round" stroke-miterlimit="10" fill="none"/></g><g clip-path="url(#clip5)"><text fill="#595959" font-family="Calibri,Calibri_MSFontService,sans-serif" font-weight="400" font-size="41" transform="matrix(1 0 0 1 1340.9 991)">0</text></g><g clip-path="url(#clip6)"><text fill="#595959" font-family="Calibri,Calibri_MSFontService,sans-serif" font-weight="400" font-size="41" transform="matrix(1 0 0 1 1340.9 908)">5</text></g><g clip-path="url(#clip7)"><text fill="#595959" font-family="Calibri,Calibri_MSFontService,sans-serif" font-weight="400" font-size="41" transform="matrix(1 0 0 1 1320 825)">10</text></g><g clip-path="url(#clip8)"><text fill="#595959" font-family="Calibri,Calibri_MSFontService,sans-serif" font-weight="400" font-size="41" transform="matrix(1 0 0 1 1320 742)">15</text></g><g clip-path="url(#clip9)"><text fill="#595959" font-family="Calibri,Calibri_MSFontService,sans-serif" font-weight="400" font-size="41" transform="matrix(1 0 0 1 1320 660)">20</text></g><g clip-path="url(#clip10)"><text fill="#595959" font-family="Calibri,Calibri_MSFontService,sans-serif" font-weight="400" font-size="41" transform="matrix(1 0 0 1 1320 577)">25</text></g><g clip-path="url(#clip11)"><text fill="#595959" font-family="Calibri,Calibri_MSFontService,sans-serif" font-weight="400" font-size="41" transform="matrix(1 0 0 1 1320 494)">30</text></g><g clip-path="url(#clip12)"><text fill="#595959" font-family="Calibri,Calibri_MSFontService,sans-serif" font-weight="400" font-size="41" transform="matrix(1 0 0 1 1320 411)">35</text></g><g clip-path="url(#clip13)"><text fill="#595959" font-family="Calibri,Calibri_MSFontService,sans-serif" font-weight="400" font-size="41" transform="matrix(1 0 0 1 1496.03 1045)">1</text></g><g clip-path="url(#clip14)"><text fill="#595959" font-family="Calibri,Calibri_MSFontService,sans-serif" font-weight="400" font-size="41" transform="matrix(1 0 0 1 1708.84 1045)">2</text></g><g clip-path="url(#clip15)"><text fill="#595959" font-family="Calibri,Calibri_MSFontService,sans-serif" font-weight="400" font-size="41" transform="matrix(1 0 0 1 1921.66 1045)">3</text></g><g clip-path="url(#clip16)"><text fill="#595959" font-family="Calibri,Calibri_MSFontService,sans-serif" font-weight="400" font-size="41" transform="matrix(1 0 0 1 2134.48 1045)">4</text></g><g clip-path="url(#clip17)"><text fill="#595959" font-family="Calibri,Calibri_MSFontService,sans-serif" font-weight="400" font-size="41" transform="matrix(1 0 0 1 2347.3 1045)">5</text></g><g clip-path="url(#clip18)"><text fill="#595959" font-family="Calibri,Calibri_MSFontService,sans-serif" font-weight="400" font-size="41" transform="matrix(1 0 0 1 2560.11 1045)">6</text></g><g clip-path="url(#clip19)"><text fill="#595959" font-family="Calibri,Calibri_MSFontService,sans-serif" font-weight="400" font-size="41" transform="matrix(1 0 0 1 2772.93 1045)">7</text></g><g clip-path="url(#clip20)"><text fill="#595959" font-family="Yu Gothic,Yu Gothic_MSFontService,sans-serif" font-weight="400" font-size="64" transform="matrix(1 0 0 1 1883.37 311)">グラフ</text></g><g clip-path="url(#clip21)"><text fill="#595959" font-family="Yu Gothic,Yu Gothic_MSFontService,sans-serif" font-weight="400" font-size="64" transform="matrix(1 0 0 1 2090.38 311)">タイトル</text></g><g clip-path="url(#clip22)"><path d="M1924 1124 2012 1124" stroke="#4472C4" stroke-width="10.3125" stroke-linecap="round" stroke-linejoin="round" stroke-miterlimit="10" fill="none" fill-rule="evenodd"/></g><g clip-path="url(#clip23)"><text fill="#595959" font-family="Yu Gothic,Yu Gothic_MSFontService,sans-serif" font-weight="400" font-size="41" transform="matrix(1 0 0 1 2021.59 1137)">最低</text></g><g clip-path="url(#clip24)"><path d="M2142 1124 2230 1124" stroke="#ED7D31" stroke-width="10.3125" stroke-linecap="round" stroke-linejoin="round" stroke-miterlimit="10" fill="none" fill-rule="evenodd"/></g><g clip-path="url(#clip25)"><text fill="#595959" font-family="Yu Gothic,Yu Gothic_MSFontService,sans-serif" font-weight="400" font-size="41" transform="matrix(1 0 0 1 2239.76 1137)">最高</text></g><rect x="1290.5" y="201.5" width="1650" height="990" stroke="#D9D9D9" stroke-width="3.4375" stroke-linejoin="round" stroke-miterlimit="10" fill="none"/></g></svg>